<mxfile host="app.diagrams.net" modified="2024-02-12T16:25:29.109Z" agent="Mozilla/5.0 (Windows NT 10.0; Win64; x64) AppleWebKit/537.36 (KHTML, like Gecko) Chrome/121.0.0.0 Safari/537.36 Edg/121.0.0.0" version="23.1.2" etag="Eqgj77Hv_rrjOQeUxJL1" type="github">
  <diagram name="第 1 页" id="Ih3d5AFd-gzuFs3LJLTP">
    <mxGraphModel>
      <root>
        <mxCell id="0" />
        <mxCell id="1" parent="0" />
      </root>
    </mxGraphModel>
  </diagram>
</mxfile>
